<?xml version="1.0" encoding="utf-8"?>
<!-- Generator: Adobe Illustrator 16.0.0, SVG Export Plug-In . SVG Version: 6.00 Build 0)  -->
<!DOCTYPE svg PUBLIC "-//W3C//DTD SVG 1.1//EN" "http://www.w3.org/Graphics/SVG/1.1/DTD/svg11.dtd">
<svg version="1.1" id="Layer_1" xmlns="http://www.w3.org/2000/svg" xmlns:xlink="http://www.w3.org/1999/xlink" x="0px" y="0px"
	 width="92px" height="120px" viewBox="0 0 92 120" enable-background="new 0 0 92 120" xml:space="preserve">
<path fill-rule="evenodd" class="logosvg" clip-rule="evenodd" fill="none" d="M24.537,36.192c0,0,5.395,10.626,18.029,13.472
	c3.497,0.788,15.263,1.66,19.959,4.248c3.21,1.768,3.881,8.923,3.979,14.683V120h24.21V38.796c0,0-23.629,5.713-32.925,5.909
	C48.493,44.9,42.103,43.7,39.495,42.748c-3.814-1.392-4.094-4.32-3.024-6.12c0.38-0.639,1.461-1.303,3.019-1.303
	c6.617,0,22.174-0.007,22.174-0.007l1.609-3.372l0.537-0.978H0l2.041,4.35L24.537,36.192z"/>
<path fill-rule="evenodd" class="logosvg" clip-rule="evenodd" fill="none" d="M76.745,1C84.618,1,91,7.448,91,15.402
	c0,7.954-6.382,14.402-14.255,14.402s-14.255-6.448-14.255-14.402C62.489,7.448,68.872,1,76.745,1z"/>
</svg>
