<?xml version="1.0" encoding="utf-8"?>
<!-- Generator: Adobe Illustrator 16.0.0, SVG Export Plug-In . SVG Version: 6.00 Build 0)  -->
<!DOCTYPE svg PUBLIC "-//W3C//DTD SVG 1.1//EN" "http://www.w3.org/Graphics/SVG/1.1/DTD/svg11.dtd">
<svg version="1.1" xmlns="http://www.w3.org/2000/svg" xmlns:xlink="http://www.w3.org/1999/xlink" x="0px" y="0px"
	 width="92px" height="120px" xml:space="preserve">
    <symbol id="iservice-logo" viewBox="0 0 92 120">
        <title>
            iService logo
        </title>
        <path d="M24.537,36.192c0,0,5.395,10.626,18.029,13.472
	c3.497,0.788,15.263,1.66,19.959,4.248c3.21,1.768,3.881,8.923,3.979,14.683V120h24.21V38.796c0,0-23.629,5.713-32.925,5.909
	C48.493,44.9,42.103,43.7,39.495,42.748c-3.814-1.392-4.094-4.32-3.024-6.12c0.38-0.639,1.461-1.303,3.019-1.303
	c6.617,0,22.174-0.007,22.174-0.007l1.609-3.372l0.537-0.978H0l2.041,4.35L24.537,36.192z" />
<path d="M76.745,1C84.618,1,91,7.448,91,15.402
	c0,7.954-6.382,14.402-14.255,14.402s-14.255-6.448-14.255-14.402C62.489,7.448,68.872,1,76.745,1z" />
    </symbol>
    <symbol id="icon-filter" viewBox="0 0 24 24">
        <title>
            Filter icon
        </title>
        <path d="M20,3H4C3.447,3,3,3.447,3,4v3c0,0.266,0.105,0.52,0.293,0.707L11,15.414V22l2-2v-4.586l7.707-7.707 C20.895,7.52,21,7.266,21,7V4C21,3.447,20.553,3,20,3z" />
    </symbol>
    <symbol id="icon-no-filter" viewBox="0 0 24 24">
    <title>
        No filter icon
    </title>
    <path d="M 21.136719 0.5390625 L 18.517578 3 L 4 3 C 3.447 3 3 3.447 3 4 L 3 7 C 3 7.266 3.1049687 7.5200312 3.2929688 7.7070312 L 8.2441406 12.658203 L 2.8164062 17.757812 L 4.0820312 19.103516 L 22.402344 1.8847656 L 21.136719 0.5390625 z M 21 4.9960938 L 10.474609 14.888672 L 11 15.414062 L 11 22 L 13 20 L 13 15.414062 L 20.707031 7.7070312 C 20.895031 7.5200312 21 7.266 21 7 L 21 4.9960938 z " />
</symbol>
</svg>
